<svg width="403" height="338" viewBox="0 0 403 338" fill="none" xmlns="http://www.w3.org/2000/svg">
<g clip-path="url(#clip0_443_16595)">
<path d="M253.808 52.094C253.88 51.8882 255.58 48.9864 257.777 45.8274C267.994 31.1148 283.144 16.9353 300.91 17.4683L300.923 17.3592C292.893 16.4784 285.019 18.6167 278.112 22.4281C266.713 28.5691 255.607 40.2729 249.531 49.2684L253.808 52.094Z" fill="#E7B310"/>
<path d="M296.967 25.6011L298.169 17.328L292.032 11.6459C291.874 11.5003 291.761 11.3136 291.705 11.107C291.648 10.9005 291.651 10.6822 291.712 10.4769C291.773 10.2717 291.89 10.0875 292.05 9.94534C292.21 9.80315 292.407 9.70858 292.618 9.67231L300.854 8.25641L304.354 0.66655C304.445 0.472843 304.588 0.308177 304.767 0.191026C304.945 0.0738756 305.153 0.0088751 305.367 0.00331844C305.581 -0.00223822 305.792 0.051868 305.977 0.159567C306.162 0.267267 306.313 0.424299 306.413 0.613043L310.307 8.0218L318.613 9.0117C318.826 9.03711 319.027 9.1216 319.195 9.2556C319.362 9.38961 319.489 9.56777 319.56 9.76994C319.631 9.97211 319.645 10.1902 319.598 10.3995C319.552 10.6089 319.448 10.8011 319.298 10.9544L313.461 16.9411L315.086 25.1443C315.127 25.3544 315.109 25.572 315.034 25.7725C314.958 25.973 314.828 26.1483 314.658 26.2787C314.488 26.4091 314.285 26.4893 314.071 26.5103C313.858 26.5313 313.643 26.4923 313.451 26.3976L305.948 22.6932L298.666 26.7804C298.477 26.8854 298.263 26.9355 298.048 26.9249C297.833 26.9144 297.625 26.8436 297.448 26.7208C297.271 26.5979 297.132 26.4278 297.047 26.2298C296.962 26.0319 296.934 25.8141 296.967 25.6011Z" fill="#E7B310"/>
<path d="M135.304 10.4568L134.211 14.509L137.489 17.2647L135.941 21.7223L140.339 23.5806L138.811 28.6968L142.649 30.9071L141.984 36.0706L140.028 35.8195L140.524 31.9587L136.476 29.627L137.944 24.7084L133.474 22.8192L135.181 17.9006L131.979 15.2108L132.994 11.4529L130.521 10.1255L131.454 8.39062L135.304 10.4568Z" fill="#5B93BC"/>
<path d="M42.7405 262.344C44.4368 264.237 45.5336 266.59 45.8921 269.105C46.2507 271.621 45.8549 274.186 44.7549 276.477C43.6549 278.768 41.9 280.681 39.7122 281.975C37.5243 283.269 35.0018 283.885 32.4635 283.746C29.9251 283.607 27.485 282.719 25.4517 281.194C23.4183 279.669 21.8831 277.575 21.04 275.178C20.1969 272.781 20.0839 270.188 20.7152 267.727C21.3465 265.265 22.6938 263.046 24.5867 261.35C25.8439 260.224 27.3108 259.356 28.9036 258.796C30.4964 258.237 32.1838 257.996 33.8696 258.089C35.5555 258.181 37.2066 258.604 38.7286 259.334C40.2507 260.065 41.614 261.087 42.7405 262.344Z" fill="#E7B310"/>
<path d="M29.4082 277.02C30.6274 278.366 32.3303 279.175 34.1445 279.27C35.9587 279.365 37.7367 278.738 39.0897 277.526C40.4427 276.314 41.2607 274.616 41.3648 272.803C41.4689 270.99 40.8507 269.21 39.6453 267.852L29.4082 277.02Z" fill="#CED8E1"/>
<path d="M367.968 335.084H59.9051C59.5183 335.084 59.1473 335.237 58.8736 335.511C58.5999 335.784 58.4459 336.154 58.4453 336.541C58.4453 336.733 58.4831 336.922 58.5564 337.099C58.6298 337.276 58.7373 337.437 58.8729 337.573C59.0084 337.708 59.1694 337.816 59.3465 337.889C59.5236 337.962 59.7134 338 59.9051 338H367.968C368.16 338 368.349 337.962 368.526 337.889C368.704 337.816 368.865 337.708 369 337.573C369.136 337.437 369.243 337.276 369.317 337.099C369.39 336.922 369.428 336.733 369.428 336.541C369.427 336.154 369.273 335.784 368.999 335.511C368.726 335.237 368.355 335.084 367.968 335.084Z" fill="#072D49"/>
<path d="M28.7492 230.163L25.391 228.257C24.5117 229.66 23.4504 230.939 22.2346 232.063C21.7932 232.464 21.2155 232.683 20.6187 232.675C20.0218 232.666 19.4505 232.431 19.0206 232.017L18.9135 231.912C18.6805 231.689 18.4962 231.419 18.3722 231.121C18.2482 230.823 18.1872 230.502 18.193 230.179C18.1988 229.857 18.2713 229.538 18.4059 229.245C18.5405 228.951 18.7344 228.689 18.9753 228.473C20.1036 227.483 21.0615 226.315 21.8105 225.014C22.9532 223.001 22.9573 221.182 21.5428 220.379C20.2004 219.618 18.7097 220.268 16.3419 222.382C12.9241 225.442 9.69149 227.021 6.26333 225.076C3.15226 223.312 1.95601 219.739 3.35815 215.537L0 213.646L1.96424 210.182L5.07532 211.946C5.73084 210.878 6.50061 209.885 7.37105 208.984C7.80503 208.546 8.39405 208.297 9.01061 208.29C9.62717 208.283 10.2217 208.519 10.6654 208.947C10.8924 209.166 11.0729 209.428 11.1962 209.719C11.3195 210.009 11.383 210.321 11.383 210.636C11.383 210.951 11.3195 211.263 11.1962 211.553C11.0729 211.843 10.8924 212.106 10.6654 212.324C9.79685 213.164 9.05538 214.126 8.46436 215.179C7.16104 217.476 7.72931 218.78 8.71967 219.34C9.88504 220.003 11.3304 219.186 14.1656 216.823C18.0364 213.46 20.9437 212.866 24.1248 214.668C27.2729 216.453 28.6956 220.202 27.0979 224.666L30.7031 226.712L28.7492 230.163Z" fill="#E7B310"/>
<path d="M359.086 88.3926L356.862 93.9327L347.549 91.3417L343.3 99.0406L336.013 98.2401L335.609 101.926L345.354 102.998L349.382 95.7005L359.069 98.3965L362.415 90.0616L359.086 88.3926Z" fill="#086EA8"/>
<path d="M342.978 284.599L344.928 279.761C342.893 278.834 340.989 277.642 339.266 276.217C338.645 275.698 338.247 274.961 338.151 274.158C338.056 273.355 338.27 272.546 338.751 271.895L338.87 271.733C339.129 271.38 339.457 271.085 339.834 270.866C340.212 270.646 340.631 270.507 341.065 270.457C341.499 270.407 341.939 270.447 342.357 270.575C342.774 270.703 343.161 270.915 343.493 271.2C345.022 272.534 346.761 273.608 348.64 274.377C351.543 275.548 353.994 275.227 354.805 273.19C355.585 271.255 354.446 269.376 351.189 266.584C346.476 262.554 343.777 258.508 345.776 253.569C347.582 249.087 352.159 246.843 358.041 247.971L359.993 243.131L364.988 245.144L363.181 249.626C364.728 250.312 366.197 251.165 367.56 252.17C368.227 252.672 368.668 253.418 368.788 254.244C368.907 255.07 368.696 255.91 368.2 256.582C367.948 256.926 367.63 257.216 367.263 257.434C366.896 257.653 366.49 257.795 366.067 257.853C365.644 257.91 365.214 257.882 364.802 257.77C364.39 257.658 364.006 257.464 363.671 257.199C362.389 256.187 360.967 255.365 359.45 254.761C356.137 253.427 354.492 254.423 353.917 255.849C353.24 257.529 354.591 259.317 358.266 262.692C363.467 267.273 364.784 271.06 362.936 275.645C361.109 280.173 356.337 282.755 350.067 281.407L347.975 286.612L342.978 284.599Z" fill="#5B93BC"/>
<path d="M71.1764 117.231C71.4162 117.548 71.5385 117.937 71.5223 118.334C71.5062 118.73 71.3526 119.109 71.0879 119.405C69.6606 120.941 67.9589 122.197 66.0702 123.109C62.8562 124.675 59.1686 125.144 55.6931 123.947C53.5209 123.198 51.4537 121.683 49.9012 119.602L48.0029 120.526C47.8494 120.601 47.6828 120.645 47.5124 120.655C47.342 120.666 47.1712 120.642 47.0098 120.587C46.8484 120.531 46.6996 120.444 46.5718 120.331C46.444 120.218 46.3398 120.081 46.2651 119.927L46.2404 119.878C46.0899 119.568 46.0685 119.212 46.1808 118.887C46.2932 118.561 46.5301 118.294 46.8395 118.143L48.3982 117.384C48.0893 116.871 47.8731 116.561 47.7311 116.262C47.4589 115.689 47.2304 115.096 47.0475 114.488L45.4415 115.27C45.2881 115.345 45.1214 115.389 44.951 115.4C44.7805 115.41 44.6097 115.387 44.4482 115.331C44.2867 115.276 44.1379 115.189 44.0101 115.076C43.8824 114.962 43.7783 114.825 43.7038 114.671C43.6289 114.518 43.5851 114.351 43.5747 114.181C43.5643 114.011 43.5876 113.84 43.6432 113.679C43.6989 113.517 43.7858 113.369 43.899 113.241C44.0122 113.113 44.1494 113.009 44.3029 112.934L46.2507 111.988C45.6948 109.487 45.7936 106.97 46.541 104.799C47.8155 101.109 50.6054 98.3041 53.9656 96.668C55.517 95.8862 57.195 95.3858 58.9215 95.1904C59.3729 95.1427 59.8253 95.272 60.1832 95.5511C60.5412 95.8302 60.7768 96.2372 60.8404 96.6865V96.7153C60.8726 96.9451 60.8588 97.1789 60.8 97.4033C60.7412 97.6277 60.6384 97.8383 60.4977 98.0227C60.357 98.2072 60.1811 98.362 59.9801 98.4781C59.7792 98.5942 59.5573 98.6694 59.3271 98.6992C57.9873 98.8924 56.6873 99.2996 55.4769 99.9052C53.3356 100.947 51.5257 102.671 50.628 105.157C50.0817 106.692 50.0306 108.359 50.4818 109.924L61.4355 104.589C61.7454 104.439 62.1025 104.417 62.4282 104.529C62.754 104.642 63.0219 104.879 63.1732 105.188C63.2484 105.341 63.2924 105.508 63.303 105.678C63.3135 105.849 63.2903 106.02 63.2346 106.181C63.1789 106.342 63.0919 106.491 62.9786 106.619C62.8652 106.746 62.7278 106.851 62.5741 106.925L51.1366 112.504C51.3425 113.062 51.5607 113.622 51.7275 113.961C51.9334 114.4 52.1537 114.838 52.4873 115.402L63.9536 109.819C64.1106 109.743 64.2812 109.698 64.4554 109.688C64.6297 109.678 64.8042 109.702 64.969 109.76C65.1339 109.817 65.2858 109.906 65.4161 110.022C65.5464 110.138 65.6525 110.279 65.7284 110.436C65.8045 110.593 65.8489 110.763 65.859 110.938C65.8691 111.112 65.8448 111.286 65.7874 111.451C65.7301 111.616 65.6408 111.768 65.5247 111.898C65.4085 112.028 65.2679 112.134 65.1107 112.21L54.1303 117.561C55.075 118.733 56.3224 119.625 57.7376 120.139C60.3195 120.989 62.6008 120.722 65.0345 119.536C66.3515 118.893 67.5618 118.052 68.6233 117.042C68.7978 116.876 69.0056 116.748 69.233 116.667C69.4605 116.586 69.7024 116.555 69.9429 116.574C70.1834 116.594 70.4171 116.664 70.6287 116.78C70.8402 116.896 71.0247 117.055 71.1702 117.248L71.1764 117.231Z" fill="#5B93BC"/>
<path d="M35.7593 151.829L30.091 152.405L28.1577 143.389L19.7654 143.208L17.2144 136.698L13.918 137.989L17.3297 146.696L25.2813 146.867L27.2929 156.245L35.8252 155.381L35.7593 151.829Z" fill="#10B0E7"/>
<path d="M305.999 85.9007L309.559 87.0758C309.559 87.0758 315.202 85.2462 315.758 84.0979C316.314 82.9495 316.471 80.1589 317.274 80.0827C318.077 80.0066 319.627 80.2679 319.998 82.1757C320.265 83.5628 318.235 87.5676 318.556 87.9936C318.762 88.2612 320.782 88.9938 322.262 89.5042C322.745 89.672 323.172 89.9697 323.496 90.3644C323.82 90.7591 324.029 91.2355 324.099 91.7412C324.15 92.083 324.083 92.4317 323.91 92.7306C323.737 93.0296 323.467 93.2612 323.146 93.3876L322.116 93.7828L322.444 94.8385C322.561 95.2177 322.525 95.6275 322.345 95.981C322.165 96.3345 321.854 96.6039 321.478 96.7319L320.685 96.9973L320.939 97.6415C321.016 97.8379 321.051 98.0481 321.043 98.2589C321.035 98.4697 320.982 98.6765 320.89 98.8661C320.797 99.0557 320.666 99.224 320.505 99.3604C320.344 99.4968 320.157 99.5982 319.954 99.6583L319.263 99.8641L319.291 100.049C319.348 100.42 319.266 100.799 319.061 101.114C318.856 101.428 318.542 101.656 318.18 101.753L317.492 101.934L308.031 98.8104C307.142 98.5161 306.324 98.041 305.628 97.4151L302.472 95.7461C302.307 95.6572 302.18 95.5126 302.113 95.3383C302.046 95.164 302.043 94.9714 302.105 94.7953L305.025 86.3946C305.09 86.2013 305.229 86.0413 305.411 85.949C305.593 85.8566 305.804 85.8393 305.999 85.9007Z" fill="#E7B310"/>
<path d="M89.0436 97.1883C88.9653 96.966 87.0649 93.7185 84.6127 90.1911C73.2082 73.7683 56.2938 57.9383 36.4558 58.531L36.4414 58.4116C45.4082 57.4279 54.1958 59.8152 61.9086 64.069C74.6329 70.9263 87.0278 83.9904 93.8224 94.0334L89.0436 97.1883Z" fill="#E7B310"/>
<path d="M40.8599 67.6216L39.5195 58.3854L46.3717 52.0427C46.5496 51.8808 46.6784 51.6721 46.7433 51.4405C46.8082 51.2089 46.8066 50.9638 46.7387 50.7331C46.6709 50.5023 46.5395 50.2953 46.3595 50.1357C46.1796 49.9761 45.9583 49.8703 45.7211 49.8303L36.5155 48.2498L32.6035 39.777C32.5032 39.5598 32.344 39.375 32.1441 39.2434C31.9442 39.1119 31.7114 39.0389 31.4721 39.0327C31.2328 39.0264 30.9966 39.0873 30.7901 39.2083C30.5836 39.3293 30.4151 39.5056 30.3036 39.7174L25.9551 47.9884L16.6898 49.0915C16.449 49.1164 16.2201 49.2088 16.0295 49.358C15.8389 49.5073 15.6944 49.7074 15.6126 49.9352C15.5308 50.163 15.5151 50.4092 15.5673 50.6455C15.6194 50.8819 15.7374 51.0987 15.9074 51.2709L22.4261 57.9553L20.6121 67.1113C20.5658 67.346 20.586 67.589 20.6705 67.8129C20.755 68.0368 20.9003 68.2327 21.0902 68.3784C21.2801 68.5241 21.5069 68.6139 21.7452 68.6377C21.9834 68.6614 22.2235 68.6181 22.4384 68.5128L30.8122 64.3824L38.9636 68.9367C39.1736 69.0539 39.4122 69.1097 39.6524 69.098C39.8926 69.0863 40.1246 69.0075 40.3222 68.8705C40.5198 68.7335 40.6749 68.5438 40.7699 68.323C40.865 68.1023 40.8962 67.8592 40.8599 67.6216Z" fill="#E7B310"/>
<path d="M351.09 227.867L351.732 225.677C355.134 225.041 358.061 222.749 359.027 219.466C359.34 218.443 359.566 217.396 359.705 216.336L355.148 215.025L355.959 212.265L360.077 213.451C360.244 211.806 360.546 210.177 360.979 208.581C362.496 203.414 367.071 201.072 371.982 202.486C373.149 202.801 374.26 203.294 375.276 203.947C375.625 204.181 375.867 204.543 375.95 204.955C376.032 205.367 375.949 205.794 375.717 206.145C375.48 206.495 375.117 206.74 374.704 206.83C374.291 206.92 373.859 206.848 373.497 206.628C372.74 206.179 371.925 205.833 371.076 205.599C367.625 204.607 365.517 206.565 364.603 209.674C364.049 211.557 363.903 213.035 363.757 214.513L370.129 216.346L369.318 219.104L363.301 217.373C362.945 219.075 362.546 220.765 361.683 222.228C360.644 223.945 359.09 225.292 357.242 226.078L357.217 226.165L368.844 229.511C369.048 229.569 369.238 229.666 369.404 229.797C369.57 229.928 369.708 230.091 369.81 230.275C369.913 230.46 369.978 230.664 370.001 230.874C370.025 231.084 370.007 231.296 369.948 231.499L369.915 231.614C369.792 232.025 369.512 232.371 369.136 232.576C368.759 232.781 368.317 232.829 367.905 232.709L351.09 227.867Z" fill="#E7B310"/>
<path d="M1.66018 99.0364L3.82414 95.3814L2.03903 91.5289C1.99025 91.4296 1.97073 91.3186 1.98277 91.2086C1.9948 91.0987 2.03789 90.9945 2.10699 90.9082C2.17609 90.8218 2.26836 90.7569 2.373 90.7211C2.47764 90.6852 2.59033 90.6799 2.6979 90.7057L6.84257 91.6318L9.95776 88.7506C10.0386 88.6787 10.1379 88.6308 10.2445 88.6122C10.3511 88.5936 10.4608 88.605 10.5612 88.6452C10.6617 88.6853 10.749 88.7527 10.8133 88.8396C10.8776 88.9266 10.9165 89.0297 10.9255 89.1375L11.3229 93.3646L15.029 95.4226C15.1239 95.4757 15.2021 95.5543 15.2548 95.6495C15.3075 95.7446 15.3326 95.8526 15.3273 95.9612C15.3219 96.0699 15.2864 96.1749 15.2246 96.2644C15.1628 96.3539 15.0772 96.4245 14.9775 96.468L11.0778 98.1515L10.2543 102.317C10.233 102.424 10.1824 102.522 10.1081 102.602C10.0338 102.681 9.93872 102.738 9.83365 102.767C9.72859 102.795 9.61766 102.794 9.51336 102.763C9.40907 102.732 9.31554 102.672 9.24331 102.591L6.44107 99.4068L2.22433 99.9131C2.11689 99.9241 2.00851 99.9051 1.9112 99.8583C1.81389 99.8115 1.73144 99.7386 1.67302 99.6478C1.6146 99.557 1.58247 99.4519 1.58021 99.3439C1.57794 99.236 1.60562 99.1296 1.66018 99.0364Z" fill="#086EA8"/>
<path d="M401.281 157.725L396.09 157.305L395.382 162.104L390.249 161.917L389.007 166.422L385.143 166.909L385.39 168.864L390.558 168.212L391.735 163.944L397.074 164.139L397.77 159.418L402.475 159.797L401.281 157.725Z" fill="#F48C7F"/>
<path d="M123.417 41.2214L123.1 36.025L118.245 36.0003L117.707 30.8944L113.07 30.2997L112.043 26.5459L110.143 27.0645L111.516 32.086L115.91 32.652L116.47 37.9616L121.244 37.9863L121.531 42.6949L123.417 41.2214Z" fill="#F48C7F"/>
<path d="M10.8972 194.583L14.8216 196.079L17.8956 193.097L22.1741 195.087L24.4678 190.903L29.4072 192.941L31.9953 189.348L37.0665 190.529L36.6197 192.449L32.8271 191.564L30.0969 195.355L25.349 193.398L23.0162 197.654L18.293 195.458L15.2931 198.368L11.6549 196.981L10.0839 199.304L8.45117 198.201L10.8972 194.583Z" fill="#E7B310"/>
<path d="M247.604 29.3369L247.349 32.498L242.216 32.6503L241.273 37.2272L237.451 37.9702L237.826 39.9026L242.938 38.9107L243.832 34.5745L249.173 34.416L249.556 29.66L247.604 29.3369Z" fill="#10B0E7"/>
<path d="M351.747 29.8554C353.869 31.8883 355.339 34.5044 355.973 37.3728C356.606 40.2412 356.375 43.233 355.307 45.9698C354.24 48.7066 352.384 51.0654 349.975 52.7479C347.566 54.4305 344.712 55.3611 341.774 55.4222C338.835 55.4832 335.945 54.6719 333.468 53.0909C330.991 51.5098 329.039 49.2301 327.859 46.54C326.678 43.8499 326.322 40.8703 326.836 37.9781C327.35 35.0859 328.711 32.4109 330.746 30.2917C333.473 27.4506 337.218 25.8087 341.156 25.7268C345.094 25.645 348.904 27.1301 351.747 29.8554Z" fill="#FFF3D9"/>
<path d="M351.494 42.2712L345.171 44.2139L343.188 50.5216C343.152 50.6364 343.085 50.7388 342.993 50.8173C342.902 50.8957 342.791 50.9471 342.672 50.9655C342.553 50.9839 342.431 50.9687 342.321 50.9215C342.21 50.8744 342.114 50.7971 342.045 50.6986L338.243 45.2882L331.629 45.352C331.509 45.3531 331.391 45.3207 331.289 45.2585C331.186 45.1962 331.103 45.1066 331.048 44.9996C330.994 44.8926 330.971 44.7726 330.981 44.653C330.991 44.5335 331.034 44.4192 331.106 44.323L335.08 39.036L332.976 32.7674C332.937 32.653 332.93 32.53 332.958 32.4123C332.986 32.2947 333.046 32.1872 333.132 32.1023C333.218 32.0174 333.326 31.9585 333.444 31.9323C333.562 31.9062 333.685 31.9138 333.799 31.9545L340.056 34.0968L345.371 30.1599C345.467 30.088 345.582 30.0445 345.702 30.0345C345.822 30.0244 345.942 30.0482 346.049 30.103C346.157 30.1579 346.246 30.2416 346.308 30.3448C346.37 30.4479 346.402 30.5664 346.4 30.6867L346.293 37.297L351.681 41.131C351.779 41.201 351.855 41.2969 351.902 41.4079C351.948 41.519 351.962 41.6407 351.942 41.7593C351.923 41.878 351.87 41.9888 351.791 42.0792C351.712 42.1697 351.609 42.2362 351.494 42.2712Z" fill="#E7B310"/>
<path d="M393.849 106.404L397.334 106.198C397.423 106.185 397.507 106.149 397.578 106.094C397.649 106.038 397.704 105.965 397.737 105.882C397.771 105.799 397.782 105.708 397.77 105.619C397.758 105.53 397.723 105.446 397.668 105.375L395.448 102.471L396.406 98.7667C396.435 98.683 396.44 98.5926 396.42 98.5062C396.4 98.4198 396.355 98.341 396.291 98.2792C396.228 98.2173 396.148 98.1749 396.061 98.157C395.974 98.1391 395.883 98.1464 395.801 98.1782L392.556 99.6476L389.663 97.5752C389.588 97.528 389.501 97.5033 389.412 97.5039C389.323 97.5045 389.237 97.5305 389.162 97.5787C389.088 97.627 389.029 97.6954 388.992 97.7761C388.955 97.8568 388.942 97.9463 388.955 98.0341L389.16 101.846L386.416 104.26C386.348 104.319 386.297 104.395 386.268 104.48C386.239 104.565 386.233 104.656 386.25 104.744C386.267 104.833 386.307 104.915 386.365 104.983C386.424 105.051 386.5 105.102 386.585 105.132L389.978 106.013L391.174 109.579C391.198 109.664 391.247 109.74 391.315 109.797C391.382 109.854 391.465 109.889 391.553 109.897C391.641 109.906 391.73 109.888 391.807 109.846C391.885 109.803 391.947 109.738 391.987 109.66L393.849 106.404Z" fill="#E76A10"/>
<path d="M128.477 170.764C128.477 170.764 134.723 158.751 135.683 154.341C136.642 149.931 139.908 127.741 139.725 126.295C139.379 123.566 135.794 121.798 136.449 120.584C137.104 119.369 140.499 118.991 141.656 119.096C142.813 119.201 145.14 119.874 146.136 120.693C147.133 121.512 145.016 148.126 144.384 153.855C143.752 159.585 135.994 177.23 135.994 177.23L128.477 170.764Z" fill="#F8A492"/>
<path d="M147.261 120.199C147.123 120.288 146.598 120.442 146.475 120.553L145.516 120.856C145.516 120.856 147.986 120.792 149.44 122.356C148.892 121.477 148.146 120.738 147.261 120.199Z" fill="#E76A10"/>
<path d="M265.332 125.021C266.3 124.284 266.792 122.434 267 121.238L267.49 119.666C267.118 119.493 259.773 118.102 257.548 117.941C257.298 118.637 257.162 119.228 257.214 119.61C257.461 121.448 259.244 133.38 259.244 133.38L265.604 133.792C265.604 133.792 264.542 126.723 265.332 125.021Z" fill="#E76A10"/>
<path d="M265.485 120.008C265.485 120.008 264.171 120.603 262.714 122.36C262.714 122.36 259.214 119.89 259.381 119.162C259.587 118.201 263.189 120.168 263.189 120.168L265.485 120.008Z" fill="#E76A10"/>
<path d="M296.502 294.513C296.502 294.513 305.061 300.687 306.407 302.52C308.349 305.169 291.908 310.135 293.703 307.023C294.115 306.309 295.299 303.907 295.351 303.671C295.627 302.409 292.139 299.005 292.139 299.005L296.502 294.513Z" fill="#F8A492"/>
<path d="M289.262 312.209L295.074 303.999C295.074 303.999 298.702 303.158 302.427 298.97C302.427 298.97 305.773 300.246 307.832 303.014C304.751 306.211 301.448 309.188 297.949 311.921C295.437 314.014 292.571 315.641 289.486 316.726C284.572 318.385 289.262 312.209 289.262 312.209Z" fill="#E7B310"/>
<path d="M366.389 142.353C366.389 142.353 364.175 146.002 363.93 145.78C363.741 145.609 365.061 143.687 366.002 141.359C366.243 140.76 366.479 140.168 366.691 139.622C367.249 138.182 366.56 137.449 365.744 138.857C365.368 139.492 365.036 140.153 364.752 140.835C364.486 141.528 364.025 142.084 363.722 142.633C363.105 143.726 362.674 144.531 362.644 144.485C362.613 144.44 362.337 144.553 362.574 143.909C362.86 143.135 363.809 141.623 364.151 140.454C364.34 139.791 364.818 138.429 364.818 138.429C364.818 138.429 365.168 136.241 365.05 136.179C364.414 135.848 363.766 137.282 363.622 138.215C363.234 138.766 362.771 140.213 362.771 140.213C362.771 140.213 361.198 142.938 360.823 142.724C360.665 142.633 361.441 140.849 361.927 138.982C362.384 137.25 362.569 135.43 362.252 135.292C361.711 135.06 361.005 136.939 361.005 136.939C361.005 136.939 360.578 138.276 360.405 138.711C360.2 139.219 359.475 140.697 359.475 140.697C359.475 140.697 356.642 145.693 356.306 145.459C355.97 145.224 355.423 144.296 355.482 143.926C355.542 143.555 356.016 142.938 356.084 142.567C356.152 142.197 355.929 141.662 355.493 141.553C355.056 141.444 354.07 143.119 354.07 143.119C354.07 143.119 353.277 144.487 353.257 145.589C353.185 149.373 353.802 149.223 353.78 149.704C353.755 150.279 349.369 156.599 349.369 156.599L349.287 156.695L354.49 160.48C356.226 157.659 357.579 155.448 357.97 154.757C357.97 154.757 360.58 152.524 362.176 151.069C363.772 149.614 364.667 147.519 365.059 147.039C365.966 145.735 366.713 144.327 367.284 142.845C368.11 140.717 366.389 142.353 366.389 142.353Z" fill="#F8A492"/>
<path d="M309.599 231.127L308.245 237.819L274.214 268.759L298.574 293.4L291.985 300.119C291.985 300.119 256.007 273.713 254.718 270.251C252.721 264.923 280.506 229.635 280.506 229.635L309.599 231.127Z" fill="#27597D"/>
<path d="M334.656 313.016C334.656 313.016 343.215 319.19 344.562 321.023C346.503 323.672 330.062 328.638 331.858 325.526C332.27 324.812 333.453 322.41 333.505 322.176C333.781 320.912 330.293 317.508 330.293 317.508L334.656 313.016Z" fill="#F8A492"/>
<path d="M327.402 330.745L333.214 322.536C333.214 322.536 337.075 321.842 340.799 317.654C340.799 317.654 343.914 318.782 345.973 321.55C342.892 324.747 339.59 327.723 336.09 330.457C333.578 332.55 330.711 334.178 327.626 335.262C322.713 336.919 327.402 330.745 327.402 330.745Z" fill="#E7B310"/>
<path d="M308.444 234.226L308.975 278.199L336.005 312.094L329.643 319.163C329.643 319.163 296.171 291.343 292.504 283.354C290.239 278.415 281.943 231.573 281.943 231.573L308.444 234.226Z" fill="#086EA8"/>
<path d="M280.983 230.762C283.75 224.518 283.431 179.757 294.201 169.273C297.992 169.911 300.695 170.272 301.327 170.436C301.889 175.048 302.509 191.969 302.888 207.48C303.141 217.811 302.888 228.646 304.152 234.357C304.943 237.893 278.454 236.467 280.983 230.762Z" fill="#E7B310"/>
<path d="M235.37 194.949C229.074 195.311 226.424 196.309 224.486 195.941C222.549 195.573 217.387 193.729 217.486 191.794C224.402 190.411 236.48 192.554 236.48 192.554C235.644 196.587 235.37 194.949 235.37 194.949Z" fill="#F8A492"/>
<path d="M289.608 170.698C289.608 170.698 286.814 184.418 283.559 186.777C280.304 189.135 263.793 197.429 262.786 197.369C257.793 197.081 233.922 196.108 233.922 196.108L234.659 188.456L261.563 186.275C261.563 186.275 281.043 173.515 283.668 171.496C285.513 170.333 289.608 170.698 289.608 170.698Z" fill="#086EA8"/>
<path d="M279.899 233.755C277.48 233.755 276.587 233.421 274.974 232.931C274.974 232.931 273.916 214.967 279.072 188.329C281.015 178.286 281.069 172.19 285.043 170.644C288.625 169.251 293.009 169.066 294.203 169.267C283.651 199.108 283.616 222.078 282.121 228.743C281.37 232.083 280.717 233.777 279.899 233.755Z" fill="#086EA8"/>
<path d="M295.315 164.765L294.209 169.274C294.209 169.274 293.956 173.199 295.78 173.551C297.979 173.977 301.245 170.688 301.245 170.688L303.137 157.974L295.315 164.765Z" fill="#E76A10"/>
<path d="M295.315 164.765L294.209 169.274C294.209 169.274 293.956 173.199 295.78 173.551C297.979 173.977 301.245 170.688 301.245 170.688L303.137 157.974L295.315 164.765Z" fill="#F8A492"/>
<path d="M303.119 158.031L295.316 164.765L294.492 168.132C297.471 167.416 301.725 164.135 303.119 158.031Z" fill="#E76A10"/>
<path d="M295.289 146.333C293.403 146.333 291.705 147.636 291.042 149.519C290.29 151.643 289.72 153.826 289.339 156.047C288.515 160.934 291.299 165.411 293.722 165.769C296.146 166.127 301.919 164.522 303.194 157.594C303.739 154.625 304.46 150.731 302.018 148.685C300.122 147.094 297.459 146.349 295.289 146.333Z" fill="#F8A492"/>
<path d="M302.409 162.873C302.409 162.873 310.954 155.258 311.326 149.315C311.699 143.371 306.206 140.184 301.507 140.019C299.586 139.943 297.662 140.042 295.759 140.315C291.052 140.908 288 142.991 289.075 146.847C290.516 152.023 300.284 147.656 302.281 149.263C303.928 150.589 301.252 153.777 302.86 154.993C304.365 156.135 303.597 155.748 303.099 157.921C302.761 159.555 302.531 161.209 302.409 162.873Z" fill="#072D49"/>
<path d="M305.703 155.977C305.497 157.403 304.62 158.447 303.758 158.327C302.895 158.208 302.366 156.942 302.578 155.516C302.79 154.09 303.661 153.046 304.523 153.168C305.386 153.289 305.915 154.553 305.703 155.977Z" fill="#F8A492"/>
<path d="M266.796 117.612C266.03 116.273 264.885 117.649 265.626 119.392C265.645 119.46 265.645 119.531 265.626 119.598C265.435 120.053 263.658 121.473 263.658 121.473C263.658 121.473 265.083 125.453 265.882 124.406C266.68 123.358 267.29 119.967 267.29 119.967L266.796 117.612Z" fill="#E76A10"/>
<path d="M356.865 158.338L351.046 152.575C351.046 152.575 339.99 168.434 334.381 171.186C328.931 173.861 310.781 172.885 310.141 172.741C307.967 172.245 301.275 170.416 301.275 170.416C301.275 170.416 295.667 218.54 302.974 235.271C305.358 240.729 320.185 237.111 320.185 237.111C320.185 237.111 315.61 217.073 315.365 214.451C315.132 211.942 313.86 192.068 314.063 191.864C314.599 191.331 334.838 186.925 340.387 182.708C346.245 178.265 356.865 158.338 356.865 158.338Z" fill="#086EA8"/>
<path d="M74.3412 202.008C84.3209 212.403 93.0777 203.192 92.6515 203.346C92.9932 203.202 95.1819 203.212 96.6088 203.157C102.553 202.924 107.968 198.666 110.33 193.021C119.226 191.858 125.043 183.641 122.438 176.528C126.369 171.636 125.158 163.824 121.438 158.83C120.573 150.631 109.856 149.243 102.481 152.114C98.7418 153.571 95.5587 156.718 93.9198 160.534C86.8102 160.363 80.7425 165.59 79.1571 172.867C68.0943 175.944 64.1535 191.399 74.3412 202.008Z" fill="#FF3B3B"/>
<path d="M138.449 302.738C137.736 306.526 136.715 310.248 135.396 313.87C135.279 314.148 134.161 315.169 134.037 315.455C134.636 322.299 138.999 326.362 143.097 329.266C142.209 325.812 140.23 321.857 140.486 321.085C141.918 316.352 143.708 311.733 145.839 307.27C142.44 306.889 141.225 304.815 138.449 302.738Z" fill="#F8A492"/>
<path d="M125.973 221.291L102.295 237.45C102.295 237.45 113.825 244.935 117.78 248.701C121.736 252.467 142.889 269.551 143.235 270.413C143.49 271.053 141.271 279.153 136.183 305.09C138.434 307.389 143.39 309.643 146.322 310.385C152.474 296.548 159.423 267.758 158.642 264.591C157.432 259.677 125.973 221.291 125.973 221.291Z" fill="#27597D"/>
<path d="M66.0207 253.814C66.7146 254.491 71.3369 263.486 73.0953 268.304C75.6689 266.684 77.2255 264.754 80.0957 263.663C77.8308 260.383 73.4041 252.486 73.0397 250.607C72.177 246.148 71.1639 245.491 71.1639 245.491C71.1639 245.491 56.2118 250.548 55.2153 251.966C54.2188 253.384 63.2226 251.089 66.0207 253.814Z" fill="#F8A492"/>
<path d="M73.2177 251.597C74.3769 251.597 73.1168 246.359 72.8512 245.151C72.5527 243.793 71.7641 243.386 71.5685 243.338C71.0393 243.207 54.4194 248.827 51.611 250.846C51.3886 251.041 51.1927 251.264 51.0284 251.51C49.4903 254.379 63.1906 254.925 65.1631 253.671C66.9276 252.556 67.9982 251.583 73.2177 251.597Z" fill="#086EA8"/>
<path d="M130.274 226.346C130.274 226.346 110.216 218.451 109.954 219.291C107.879 225.977 101.416 223.819 97.5798 235.596C95.9717 240.536 94.6972 253.548 93.6245 263.204C92.8792 269.839 91.8394 275.157 91.8394 275.157C91.8394 275.157 87.1965 268.292 78.4562 258.448C77.7788 257.687 70.7207 264.394 70.7207 264.394C84.6433 291.985 94.7981 295.881 97.0177 295.136C107.076 291.738 120.412 245.487 120.389 245.491C122.024 242.308 130.274 226.346 130.274 226.346Z" fill="#086EA8"/>
<path d="M99.3184 179.596C99.3184 179.596 75.3707 179.566 70.2439 179.277C65.6051 179.01 47.2001 179.483 46.4816 179.395C45.763 179.306 41.0047 171.257 40.2141 172.124C39.4235 172.99 42.8599 176.116 41.7974 176.927C40.735 177.738 29.3119 175.921 29.4643 176.765C29.7464 178.345 36.4112 178.143 36.405 178.907C36.3989 179.67 29.4293 178.479 28.9578 179.745C28.4863 181.01 35.6597 180.261 35.9459 180.825C36.2321 181.389 29.2914 182.424 30.0017 183.601C30.3867 184.241 36.1518 182.533 36.123 183.395C36.0941 184.258 31.8898 186.248 32.4066 186.943C32.9233 187.639 35.7009 184.813 38.1469 184.778C40.593 184.743 42.3348 183.47 46.2283 184.538C48.1514 185.064 62.8358 186.859 75.241 187.919C87.9613 189.006 98.3857 189.359 98.3857 189.359L99.3184 179.596Z" fill="#F8A492"/>
<path d="M134.824 200.874C135.141 197.03 134.385 189.716 134.206 188.44C135.37 184.449 137.842 175.933 138.736 174.258C138.736 174.258 134.567 166.25 130.294 166.306C130.294 166.306 125.935 176.127 122.567 177.882C122.518 177.87 121.375 178.393 120.873 178.388C117.617 178.366 106.254 178.02 104.125 177.977L105.319 194.099C109.802 205.976 108.984 216.486 108.202 220.147C107.761 222.182 127.506 228.297 130.541 226.346C130.659 226.274 134.182 208.643 134.824 200.874Z" fill="#10B0E7"/>
<path d="M109.909 178.593C107.813 177.59 92.6361 178.093 92.6361 178.093C92.6361 178.093 90.5154 188.656 92.2243 191.196C92.2243 191.196 105.795 193.213 105.402 194.326L109.909 178.593Z" fill="#10B0E7"/>
<path d="M112.555 171.202C112.555 171.202 114.132 176.759 114.408 179.148C114.684 181.538 118.349 189.027 123.325 187.948C128.302 186.87 123.109 179.906 122.135 177.708C121.161 175.51 118.526 166.636 118.526 166.636L112.555 171.202Z" fill="#F8A492"/>
<path d="M119.636 170.274C119.019 168.251 118.531 166.636 118.531 166.636L112.561 171.202C112.561 171.202 112.851 172.231 113.205 173.577C116.361 174.005 118.523 172.487 119.636 170.274Z" fill="#E76A10"/>
<path d="M108.218 154.582C106.524 155.67 105.274 157.326 104.693 159.253C103.779 162.427 104.991 170.572 111.813 172.425C118.634 174.277 121.49 167.794 120.009 162.766C118.529 157.739 115.399 151.402 108.218 154.582Z" fill="#F8A492"/>
<path d="M120.83 160.809C120.717 162.167 119.984 163.215 119.193 163.149C118.403 163.083 117.853 161.929 117.958 160.57C118.063 159.212 118.804 158.167 119.605 158.232C120.406 158.298 120.943 159.453 120.83 160.809Z" fill="#F8A492"/>
<path d="M135.346 314.041C134.916 312.962 130.584 316.397 129.562 317.093C128.414 317.877 128.327 318.758 128.356 318.957C128.43 319.484 139.454 333.055 142.676 334.929C143.033 335.084 143.43 335.122 143.81 335.039C145.602 334.349 142.686 323.246 140.335 321.054C138.815 319.632 137.275 318.887 135.346 314.041Z" fill="#086EA8"/>
<path d="M109.006 154.17C109.006 154.17 107.909 163.285 104.989 164.97C102.07 166.656 103.363 170.671 103.363 170.671C103.363 170.671 100.557 161.332 102.84 158.286C105.123 155.24 109.006 154.17 109.006 154.17Z" fill="#FF3B3B"/>
<path d="M106.751 166.242C107.575 167.415 107.575 168.813 106.79 169.364C106.006 169.916 104.693 169.409 103.877 168.236C103.062 167.063 103.054 165.666 103.838 165.114C104.623 164.563 105.936 165.077 106.751 166.242Z" fill="#F8A492"/>
<path d="M230.352 80.2124C226.631 80.9451 211.759 100.862 211.759 100.862L211.236 102.239C211.236 102.239 238.141 99.2488 239.115 98.1005C241.746 94.997 233.411 79.6115 230.352 80.2124ZM211.949 101.28C216.857 95.0073 228.044 85.8452 230.461 83.9045C232.619 86.1045 235.872 92.6015 236.3 95.5362C233.209 96.1783 219.797 100.338 211.949 101.28Z" fill="#10B0E7"/>
<path d="M194.312 83.6119C186.993 78.8395 184.983 78.8786 182.85 80.0845C180.717 81.2905 172.854 92.5704 176.368 96.0895C179.883 99.6087 207.761 102.115 207.761 102.115L208.391 100.409C208.391 100.409 201.63 88.3844 194.312 83.6119ZM181.213 94.8486C179.587 93.2269 183.634 86.4746 185.479 85.0381C185.951 84.7726 204.708 96.7049 207.325 100.778C196.849 99.6457 182.726 96.1924 181.213 94.8486Z" fill="#10B0E7"/>
<path d="M209.557 97.1602H207.986C206.432 97.1602 205.172 98.4197 205.172 99.9734V104.587C205.172 106.141 206.432 107.401 207.986 107.401H209.557C211.111 107.401 212.371 106.141 212.371 104.587V99.9734C212.371 98.4197 211.111 97.1602 209.557 97.1602Z" fill="#10B0E7"/>
<path d="M267.471 102.325L139.925 101.942C139.126 101.94 138.337 102.111 137.61 102.442C136.884 102.774 136.237 103.259 135.716 103.863C135.194 104.468 134.81 105.178 134.589 105.945C134.368 106.713 134.316 107.519 134.436 108.308L136.41 121.316L142.803 121.304L146.656 186.771C146.754 188.458 147.494 190.043 148.724 191.203C149.954 192.363 151.58 193.01 153.271 193.01H255.074L259.309 121.063L265.332 121.051L267.471 102.325Z" fill="#D11B1B"/>
<path d="M140.688 122.849L140.717 121.277C139.496 120.8 138.055 120.954 137.343 120.76L135.634 119.501C135.274 119.345 134.767 119.738 134.772 120.129C134.776 120.52 135.255 121.261 135.498 121.454C135.498 121.454 138.557 123.973 139.632 124.747C140.165 125.125 141.839 126.148 141.839 126.148L142.815 124.323L140.688 122.849Z" fill="#E76A10"/>
<path d="M257.243 193.011H179.102L174.918 103.682H267.758L263.865 186.8C263.702 190.274 260.787 193.011 257.243 193.011Z" fill="#E76A10"/>
<path d="M271.588 121.094L170.802 121.362L168.5 101.979L267.233 102.356C267.999 102.359 268.757 102.521 269.458 102.832C270.158 103.143 270.786 103.596 271.303 104.162C271.819 104.728 272.212 105.396 272.457 106.122C272.701 106.848 272.792 107.617 272.724 108.38L271.588 121.094Z" fill="#E76A10"/>
<path d="M170.807 121.361L266.935 121.094L173.856 126.173L170.807 121.361Z" fill="#D11B1B"/>
<path d="M211.301 102.13H208.627V121.273H211.301V102.13Z" fill="#10B0E7"/>
<path d="M219.726 121.183H216.383V193.144H219.726V121.183Z" fill="#10B0E7"/>
<path d="M139.024 64.5858C146.719 67.6051 154.58 70.1825 162.569 72.3053C164.98 72.9453 168.974 74.7749 171.194 73.145C172.347 72.3012 172.83 71.0314 172.153 69.6793C170.918 67.2097 167.067 67.0266 164.638 66.3865C157.226 64.415 148.947 61.8322 140.723 58.737C139.181 58.1566 137.377 59.3215 136.945 60.8156C136.451 62.5134 137.484 63.9951 139.024 64.592V64.5858Z" fill="#CED8E1"/>
<path d="M196.009 50.9125C193.384 30.808 193.555 30.7566 192.441 28.8591C191.298 26.9143 188.169 27.1819 187.551 29.4312C186.933 31.6806 187.082 31.302 189.925 52.4457C190.152 54.1271 192.221 55.1005 193.734 54.7198C195.538 54.2671 196.232 52.6001 196.009 50.9125Z" fill="#CED8E1"/>
<path d="M228.35 53.4957C230.336 50.817 232.027 47.9322 233.394 44.8912C234.673 42.0615 237.012 37.8941 234.819 35.0911C234.347 34.4881 233.238 34.202 232.527 34.4469C229.552 35.4759 228.984 39.6413 227.792 42.2467C226.473 45.0834 224.914 47.8023 223.132 50.3737C222.208 51.7279 222.832 53.7303 224.182 54.537C225.704 55.4466 227.366 54.8107 228.346 53.4895L228.35 53.4957Z" fill="#CED8E1"/>
<path d="M273.122 68.7762C274.021 67.5414 273.266 65.9403 272.209 65.15C270.031 63.5263 266.189 65.0245 263.815 65.6789C261.058 66.458 258.368 67.458 255.771 68.6692C254.268 69.3586 253.852 71.4907 254.618 72.8428C255.511 74.4233 257.259 74.6332 258.791 73.9952C268.8 69.8299 270.9 71.8241 273.122 68.7762Z" fill="#CED8E1"/>
</g>
<defs>
<clipPath id="clip0_443_16595">
<rect width="402.474" height="338" fill="white"/>
</clipPath>
</defs>
</svg>
