<svg width="91" height="90" viewBox="0 0 91 90" fill="none" xmlns="http://www.w3.org/2000/svg">
<path d="M36.932 47.6036H6.0269C4.42009 47.6137 2.88376 48.2615 1.75353 49.4038C0.624089 50.5455 -0.00713536 52.0891 6.08615e-05 53.6958V74.3403C0.00725009 76.0816 0.752774 77.7387 2.05052 78.8997C3.3482 80.0608 5.07643 80.6179 6.8085 80.4324V87.3278C6.81784 87.9762 7.21397 88.5564 7.81355 88.8023C8.41386 89.0481 9.1026 88.913 9.56487 88.4579L17.4724 80.4326H36.9317V80.4333C38.5385 80.4218 40.0741 79.7747 41.2036 78.6323C42.333 77.49 42.9635 75.9464 42.957 74.3404V53.6959C42.9635 52.0898 42.333 50.5463 41.2036 49.4039C40.0741 48.2615 38.5378 47.6145 36.9317 47.6037L36.932 47.6036ZM39.7365 74.3401C39.7444 75.0928 39.4532 75.8175 38.9277 76.3559C38.4022 76.8944 37.6847 77.2021 36.9319 77.2122H16.7972C16.3658 77.2122 15.9532 77.3847 15.6505 77.6917L10.0284 83.3986V78.8219V78.8227C10.0284 78.3949 9.85878 77.9851 9.55683 77.6832C9.25488 77.3812 8.84508 77.2115 8.41804 77.2123H6.02617C5.27345 77.2022 4.55523 76.8945 4.02889 76.356C3.50335 75.8183 3.21219 75.0929 3.2201 74.3402V53.6957C3.21219 52.9429 3.50337 52.2183 4.02889 51.6798C4.55516 51.1413 5.27336 50.8336 6.02617 50.8243H36.9331H36.9324C37.6851 50.8336 38.4026 51.142 38.9282 51.6798C39.4537 52.2183 39.7449 52.943 39.737 53.6957L39.7365 74.3401Z" fill="#F9F9F9"/>
<path d="M11.9499 61.6372C10.6616 61.6753 9.63721 62.7307 9.63721 64.019C9.63721 65.3072 10.6617 66.3619 11.9499 66.4001C13.2375 66.362 14.2619 65.3074 14.2619 64.019C14.2619 62.7299 13.2375 61.6753 11.9499 61.6372Z" fill="#F9F9F9"/>
<path d="M22.5805 61.6372C21.2929 61.6753 20.2686 62.7307 20.2686 64.019C20.2686 65.3072 21.293 66.3619 22.5805 66.4001C23.8689 66.362 24.8925 65.3074 24.8925 64.019C24.8925 62.7299 23.8681 61.6753 22.5805 61.6372Z" fill="#F9F9F9"/>
<path d="M33.2114 61.6372C31.9238 61.6753 30.8994 62.7307 30.8994 64.019C30.8994 65.3072 31.9239 66.3619 33.2114 66.4001C34.4997 66.362 35.5241 65.3074 35.5241 64.019C35.5241 62.7299 34.4997 61.6753 33.2114 61.6372Z" fill="#F9F9F9"/>
<path d="M39.9238 4.82538H6.13284C4.74386 4.82754 3.41245 5.37967 2.42964 6.36246C1.44759 7.34452 0.894728 8.67666 0.893274 10.0657C0.893993 16.0586 0.892555 29.4421 0.893274 35.3095C0.894712 36.6985 1.44757 38.0306 2.42964 39.0127C3.41241 39.9948 4.74384 40.5476 6.13284 40.5498H39.9238C41.3128 40.5476 42.6449 39.9948 43.627 39.0127C44.6098 38.0306 45.1619 36.6985 45.1641 35.3095V10.0657C45.1619 8.67668 44.6098 7.34453 43.627 6.36246C42.6449 5.37969 41.3128 4.82755 39.9238 4.82538ZM6.13284 8.04619H39.9238C41.0388 8.04763 41.9419 8.95134 41.9433 10.0657V27.901L35.1227 21.0791C34.6569 20.6118 33.9523 20.4766 33.347 20.7397L24.371 24.6055L17.9935 18.2264H17.9927C17.5269 17.7598 16.823 17.6247 16.2177 17.8849L4.11444 23.0936V10.0659C4.11516 8.95152 5.01886 8.0478 6.13324 8.04632L6.13284 8.04619ZM39.9238 37.3298H6.13284C5.01849 37.3284 4.11477 36.4247 4.11403 35.3103V26.602L16.4875 21.276L27.0212 31.8112C27.6503 32.4381 28.6683 32.4367 29.2966 31.8091C29.9242 31.1807 29.9249 30.1627 29.298 29.5337L26.8198 27.0555L33.6167 24.1288L41.9426 32.4562V35.3104C41.9411 36.4247 41.0381 37.3284 39.923 37.3299L39.9238 37.3298Z" fill="#F9F9F9"/>
<path d="M28.2784 18.4084C29.8004 18.3904 31.1994 17.568 31.9556 16.2466C32.7112 14.9252 32.7112 13.3026 31.9556 11.9811C31.1993 10.6597 29.8003 9.83737 28.2776 9.82007C26.7557 9.83732 25.3566 10.6598 24.6004 11.9811C23.8448 13.3025 23.8448 14.9259 24.6004 16.2466C25.3567 17.568 26.7558 18.3904 28.2784 18.4084ZM28.2784 13.0409C28.8622 13.0524 29.3295 13.5297 29.3295 14.1142C29.3295 14.6987 28.8621 15.1754 28.2784 15.1876C27.6939 15.1754 27.2259 14.6987 27.2259 14.1142C27.2259 13.5297 27.6939 13.0524 28.2784 13.0409Z" fill="#F9F9F9"/>
<path d="M84.6885 60.6285H52.1711C50.7146 60.63 49.3184 61.2094 48.2881 62.2389C47.2579 63.2692 46.6784 64.6654 46.6763 66.122V84.5066C46.6784 85.9631 47.2579 87.36 48.2881 88.3896C49.3184 89.4198 50.7146 89.9985 52.1711 90H84.6885C86.145 89.9985 87.5412 89.4191 88.5708 88.3896C89.601 87.3593 90.1804 85.9631 90.1819 84.5066V66.122C90.1804 64.6661 89.601 63.2692 88.5715 62.2397C87.5412 61.2094 86.145 60.6307 84.6885 60.6286L84.6885 60.6285ZM86.9611 84.5067C86.9596 85.7613 85.9431 86.7779 84.6885 86.7793H52.1711C50.9166 86.7786 49.8993 85.7621 49.8972 84.5067V66.1221C49.8994 64.8676 50.9167 63.851 52.1711 63.8495H84.6885C85.943 63.851 86.9596 64.8675 86.9611 66.1221V84.5067Z" fill="#F9F9F9"/>
<path d="M73.8898 73.4033L66.9953 68.5843V68.585C66.2835 68.1004 65.3626 68.0465 64.599 68.4448C63.8348 68.8438 63.3524 69.6296 63.3423 70.4908V80.1281C63.3524 80.9893 63.8348 81.7758 64.599 82.1741C65.3625 82.5724 66.2834 82.5185 66.9958 82.0339L73.8904 77.2156H73.8897C74.5051 76.7756 74.8703 76.066 74.8703 75.3098C74.8703 74.5535 74.5051 73.8431 73.8897 73.4032L73.8898 73.4033ZM66.5631 78.4077V72.2113L70.9946 75.3091L66.5631 78.4077Z" fill="#F9F9F9"/>
<path d="M56.189 54.0085H88.0254C88.4524 54.0085 88.8622 53.8388 89.1642 53.5368C89.4661 53.2349 89.6358 52.8251 89.6358 52.3981V1.61041C89.6358 1.18336 89.4661 0.773566 89.1642 0.471619C88.8622 0.168955 88.4524 0 88.0254 0H56.189C55.762 0 55.3522 0.168949 55.0502 0.471619C54.7483 0.773566 54.5786 1.18336 54.5786 1.61041V52.3981C54.5786 52.8251 54.7483 53.2349 55.0502 53.5368C55.3522 53.8388 55.762 54.0085 56.189 54.0085ZM57.7994 3.22081H86.415V50.7877H57.7994V3.22081Z" fill="#F9F9F9"/>
<path d="M62.3915 11.0506H69.7152C70.5923 11.0333 71.294 10.3173 71.294 9.43946C71.294 8.56237 70.5923 7.84632 69.7145 7.82977H62.3915C61.5137 7.84631 60.812 8.56237 60.812 9.44018C60.812 10.3173 61.5137 11.0333 62.3915 11.0506H62.3915Z" fill="#F9F9F9"/>
<path d="M81.8293 14.8544H62.3921C61.5021 14.8544 60.7817 15.5755 60.7817 16.4648C60.7817 17.3541 61.5021 18.0752 62.3921 18.0752H81.8293C82.7064 18.0579 83.4088 17.3419 83.4088 16.4648C83.4088 15.5877 82.7064 14.8716 81.8293 14.8544Z" fill="#F9F9F9"/>
<path d="M62.3915 25.1003H78.7142C79.5913 25.083 80.293 24.367 80.293 23.4891C80.293 22.6121 79.5913 21.896 78.7135 21.8795H62.3915C61.5137 21.896 60.812 22.6121 60.812 23.4899C60.812 24.367 61.5137 25.083 62.3915 25.1003H62.3915Z" fill="#F9F9F9"/>
<path d="M81.825 28.9063H75.7809C74.9038 28.9236 74.2007 29.6396 74.2007 30.5167C74.2007 31.3945 74.9038 32.1106 75.7809 32.1271H81.825C82.7021 32.1106 83.4045 31.3945 83.4045 30.5167C83.4045 29.6396 82.7021 28.9236 81.825 28.9063Z" fill="#F9F9F9"/>
<path d="M62.3915 32.1271H68.7297H68.729C69.606 32.1099 70.3084 31.3945 70.3084 30.5167C70.3084 29.6396 69.606 28.9236 68.729 28.9063H62.3915C61.5137 28.9236 60.812 29.6396 60.812 30.5167C60.812 31.3945 61.5137 32.1106 62.3915 32.1271H62.3915Z" fill="#F9F9F9"/>
<path d="M62.3915 39.1522H78.0045C78.8816 39.135 79.584 38.4189 79.584 37.5418C79.584 36.664 78.8816 35.9487 78.0045 35.9314H62.3915C61.5137 35.9487 60.812 36.6647 60.812 37.5418C60.812 38.4189 61.5137 39.1349 62.3915 39.1522Z" fill="#F9F9F9"/>
<path d="M81.8293 42.9564H62.3921C61.5021 42.9564 60.7817 43.6775 60.7817 44.5668C60.7817 45.4569 61.5021 46.1772 62.3921 46.1772H81.8293C82.7064 46.1607 83.4088 45.4446 83.4088 44.5668C83.4088 43.6897 82.7064 42.9737 81.8293 42.9564Z" fill="#F9F9F9"/>
</svg>
