<svg width="90" height="90" viewBox="0 0 90 90" fill="none" xmlns="http://www.w3.org/2000/svg">
<path d="M60.9693 52.2585V49.355H82.743C86.7452 49.355 90.0009 46.0993 90.0009 42.0971V10.1614C90.0009 6.15925 86.7452 2.90348 82.743 2.90348H55.7091C54.073 1.12051 51.7245 0 49.1198 0H40.8812C38.2758 0 35.9279 1.11999 34.2918 2.90348H7.25791C3.25577 2.90348 0 6.15925 0 10.1614V42.0971C0 46.0993 3.25577 49.355 7.25791 49.355H29.0316V52.2585C29.0316 53.8594 30.3343 55.162 31.9351 55.162V58.8371L6.91976 79.6819C6.21162 80.272 5.80542 81.139 5.80542 82.0606C5.80542 82.8874 6.12748 83.6653 6.71258 84.2497L8.65242 86.1895C9.23752 86.7746 10.0147 87.0967 10.8415 87.0967H11.0117C11.7405 87.0967 12.4487 86.8381 13.0061 86.3685L39.7218 63.8699H40.6434V87.0965C40.6434 88.6974 41.9461 90 43.5469 90H46.4504C48.0513 90 49.3539 88.6973 49.3539 87.0965L49.3533 63.8699H50.2755L58.4098 70.7198C58.1825 71.7889 58.0626 72.8964 58.0626 74.0313C58.0626 82.8361 65.2257 89.9992 74.0305 89.9992C82.8353 89.9992 89.9984 82.8361 89.9984 74.0313C89.9984 65.2265 82.8353 58.0634 74.0305 58.0634C69.6303 58.0634 65.6407 59.8527 62.7497 62.7411L58.0626 58.8355V55.1604C59.6635 55.1604 60.9661 53.8578 60.9661 52.257L60.9693 52.2585ZM82.743 46.452H78.388V32.8547C79.3654 33.7029 80.5481 34.3357 81.8723 34.6665L87.0981 35.9729L87.0975 42.097C87.0975 44.4988 85.1444 46.452 82.743 46.452L82.743 46.452ZM78.388 26.4864C78.388 23.7041 80.4703 21.3454 83.2314 21L87.0974 20.5166V32.9809L82.576 31.8502C80.11 31.2338 78.388 29.0278 78.388 26.4864ZM87.0973 10.1625V17.5906L82.8709 18.1192C81.1571 18.3333 79.6145 19.0565 78.3878 20.125V5.80746H82.7429C85.1441 5.80746 87.0973 7.76112 87.0973 10.1625V10.1625ZM40.8804 2.90461H49.119C52.4512 2.90461 55.1615 5.61475 55.1615 8.94654C55.1615 9.59694 55.0573 10.2398 54.8514 10.8576L54.599 11.6141H52.597C51.7991 10.7239 50.6414 10.1626 49.3544 10.1626C46.7929 10.1626 44.3126 9.4118 42.1812 7.99041L40.7486 7.03554L38.6969 8.06135C37.3157 8.75256 36.4218 10.0936 36.3043 11.614H35.4009L35.1485 10.8569C34.9426 10.2397 34.8384 9.59688 34.8384 8.94579C34.8384 5.61464 37.5492 2.9045 40.8803 2.9045L40.8804 2.90461ZM53.7099 14.5176H55.1614C55.9618 14.5176 56.6128 15.1686 56.6128 15.969C56.6128 16.7695 55.9618 17.4205 55.1614 17.4205H53.7099V14.5176ZM47.444 23.3016L46.4514 23.6325V27.1425L45 29.3197L43.5485 27.1425V23.6325L42.556 23.3016C40.5451 22.6311 39.1935 20.7565 39.1935 18.6366V11.9569C39.1935 11.4032 39.5011 10.906 39.9958 10.6586L40.5407 10.3862L40.5715 10.4063C43.1812 12.1465 46.2186 13.0656 49.3549 13.0656C50.1554 13.0656 50.8064 13.7166 50.8064 14.5171V18.6367C50.8064 20.7567 49.4554 22.6313 47.4439 23.3018L47.444 23.3016ZM36.29 17.4204H34.8386C34.0381 17.4204 33.3871 16.7694 33.3871 15.969C33.3871 15.1685 34.0381 14.5175 34.8386 14.5175H36.29V17.4204ZM2.903 42.0983V10.1625C2.903 7.76126 4.85666 5.80745 7.25807 5.80745H9.49121C8.99463 6.6625 8.7096 7.6531 8.7096 8.71093V43.5492C8.7096 44.6064 8.99524 45.5977 9.49058 46.4527L7.25744 46.4521C4.85619 46.4521 2.90302 44.499 2.90302 42.097L2.903 42.0983ZM11.6123 43.5504V8.71209C11.6123 7.11122 12.915 5.80861 14.5158 5.80861H32.5047C32.1368 6.78608 31.9346 7.84326 31.9346 8.94754C31.9346 9.91058 32.0891 10.8623 32.3936 11.7764L32.5555 12.263C31.3131 13.0308 30.4826 14.405 30.4826 15.97C30.4826 18.3713 32.4363 20.3251 34.8377 20.3251H36.4731C36.9804 22.6298 38.5078 24.596 40.6442 25.6494V26.1316H39.8776C35.3199 26.1316 31.2223 28.6641 29.1844 32.7404L31.781 34.0386C33.3247 30.9518 36.4272 29.0344 39.8783 29.0344H41.3191L44.9991 34.5547L48.6792 29.0344H50.12C53.571 29.0344 56.6735 30.9518 58.2166 34.0386L60.8132 32.7404C58.7753 28.6635 54.6777 26.1316 50.12 26.1316H49.3541V25.6494C51.4905 24.596 53.0179 22.6298 53.5251 20.3251H55.1605C57.5618 20.3251 59.5156 18.3715 59.5156 15.97C59.5156 14.4049 58.6857 13.0307 57.4427 12.263L57.6047 11.7764C57.9091 10.8624 58.0636 9.9107 58.0636 8.94754C58.0636 7.84325 57.8614 6.78608 57.4936 5.80861H75.4824V46.4535H14.5151C12.9142 46.4535 11.6116 45.1515 11.6116 43.5507L11.6123 43.5504ZM58.0639 49.3568V52.2603L31.9348 52.2597V49.3562L58.0639 49.3568ZM11.1366 84.1501C11.1021 84.1796 11.0575 84.1953 11.0123 84.1953H10.8422C10.7913 84.1953 10.7417 84.1746 10.7059 84.1388L8.76611 82.199C8.72969 82.1632 8.70961 82.1136 8.70961 82.0627C8.70961 82.005 8.73472 81.951 8.77929 81.9146L32.2775 62.333C32.7665 63.2483 33.7308 63.873 34.8394 63.873H35.2168L11.1366 84.1501ZM46.4506 87.0983H43.5471L43.5477 60.9692H46.4512L46.4506 87.0983ZM54.7827 63.8717H55.1607C56.2687 63.8717 57.2336 63.247 57.7226 62.3317L60.8918 64.9723C60.296 65.8336 59.7825 66.7559 59.3631 67.7282L54.7827 63.8717ZM74.0316 60.9688C81.2355 60.9688 87.096 66.8293 87.096 74.0332C87.096 81.2371 81.2355 87.0976 74.0316 87.0976C66.8277 87.0976 60.9672 81.2371 60.9672 74.0332C60.9672 66.8293 66.8277 60.9688 74.0316 60.9688ZM55.1604 60.9688H49.3539C49.3539 59.368 48.0512 58.0654 46.4504 58.0654H43.5469C41.9461 58.0654 40.6435 59.368 40.6435 60.9688H34.837V55.1624H55.1594L55.1604 60.9688Z" fill="#F9F9F9"/>
</svg>
