<svg width="117" height="58" viewBox="0 0 117 58" fill="none" xmlns="http://www.w3.org/2000/svg">
<path d="M65.4478 45.1737L65.4518 45.1791C70.6246 52.389 78.9562 56.6634 87.8301 56.659C95.2417 56.65 102.346 53.7021 107.588 48.4618C107.588 48.4617 107.588 48.4617 107.588 48.4617M65.4478 45.1737L116.535 28.7044C116.526 36.3148 113.499 43.6103 108.118 48.9921L107.588 48.4617M65.4478 45.1737C64.9279 44.4626 64.7112 43.5751 64.8459 42.706L64.8459 42.7055C64.9798 41.837 65.4541 41.0563 66.1637 40.5369L66.1639 40.5368C66.8742 40.0166 67.7606 39.8004 68.6304 39.9342C69.499 40.0687 70.2787 40.542 70.7981 41.2497C74.7281 46.7498 81.0696 50.0184 87.8294 50.0288H87.8305C95.4494 50.0288 102.489 45.9649 106.299 39.3666L105.649 38.9916L106.299 39.3666C110.107 32.7692 110.107 24.6397 106.299 18.0423L105.697 18.3895L106.299 18.0423C102.489 11.444 95.4494 7.38018 87.8305 7.38018L87.8283 7.38018C79.8307 7.40364 72.4251 11.5979 68.2918 18.4453L68.2907 18.447L53.9368 42.3714C53.9366 42.3718 53.9363 42.3722 53.936 42.3727C48.5954 51.2123 39.0325 56.6279 28.7048 56.66C18.7178 56.6596 9.48991 51.3319 4.49523 42.6827C-0.498422 34.0332 -0.49841 23.3776 4.49527 14.7281C9.48894 6.07867 18.7173 0.750836 28.7059 0.750837L28.7062 0.750836C37.5801 0.74642 45.9117 5.02089 51.0845 12.2307L51.0845 12.2307L51.0886 12.2363C51.789 13.1936 51.9258 14.4504 51.4477 15.5353C50.9695 16.6197 49.9496 17.3669 48.7718 17.495C47.5939 17.6229 46.4386 17.1142 45.7384 16.1604C41.8085 10.6602 35.4669 7.39161 28.7071 7.38125H28.706C21.0871 7.38125 14.0477 11.4451 10.2379 18.0434L10.2379 18.0434C6.42901 24.6408 6.42901 32.7703 10.2379 39.3677L10.2379 39.3677C14.0477 45.966 21.0871 50.0298 28.706 50.0298L28.7082 50.0298C36.7058 50.0064 44.1113 45.8121 48.2447 38.9647L48.2458 38.963L62.5997 15.0386C67.9401 6.19833 77.5033 0.782271 87.8313 0.750001M65.4478 45.1737L87.8313 0.750001M107.588 48.4617C112.828 43.2205 115.776 36.1159 115.785 28.7044M107.588 48.4617L115.785 28.7044M115.785 28.7044C115.776 21.293 112.828 14.1885 107.588 8.94732C107.588 8.94729 107.588 8.94726 107.588 8.94723M115.785 28.7044L87.8306 0C95.441 0.00907387 102.736 3.03609 108.118 8.41695L107.588 8.94723M107.588 8.94723C102.347 3.70719 95.2425 0.759262 87.8313 0.750001M107.588 8.94723L87.8313 0.750001" fill="#F9F9F9" stroke="#051535" stroke-width="1.5"/>
</svg>
